<svg width="200" height="300" viewBox="0 0 200 300" fill="none" xmlns="http://www.w3.org/2000/svg">
<path d="M152.935 157.394C174.532 141.69 185.487 123.783 185.487 103.922C185.487 58.5383 144.032 0 99.9987 0C55.9657 0 14.5101 58.5383 14.5101 103.922C14.5101 127.742 30.9801 145.724 46.8197 157.512C32.956 163.437 21.1256 173.345 12.8008 186.001C4.47598 198.657 0.0244012 213.504 3.08602e-05 228.693V259.49C-0.00966018 265.446 2.26345 271.175 6.34405 275.479L18.7616 288.608C18.7616 288.791 18.708 288.964 18.708 289.149C18.7114 292.026 19.8457 294.784 21.8622 296.818C23.8786 298.852 26.6126 299.997 29.4643 300H170.533C173.385 299.997 176.119 298.852 178.135 296.818C180.152 294.784 181.286 292.026 181.289 289.149C181.289 288.964 181.244 288.791 181.236 288.608L193.653 275.479C197.735 271.175 200.009 265.446 200 259.49V228.693C199.977 213.456 195.499 198.564 187.128 185.882C178.756 173.2 166.863 163.29 152.935 157.394ZM122.884 169.053L122.404 169.282C122.102 169.427 121.83 169.631 121.606 169.882C121.381 170.133 121.207 170.426 121.095 170.745C120.983 171.064 120.934 171.402 120.951 171.739C120.968 172.077 121.051 172.408 121.195 172.714C121.339 173.019 121.541 173.293 121.79 173.519C122.039 173.746 122.329 173.921 122.645 174.034C122.961 174.148 123.296 174.197 123.631 174.18C123.966 174.163 124.294 174.079 124.596 173.934L125.071 173.705C132.95 169.974 140.564 165.7 147.86 160.913C157.522 164.477 166.313 170.096 173.634 177.389C172.632 177.063 171.588 176.89 170.536 176.874H107.675C114.534 171.274 124.438 161.657 125.115 152.443C135.588 147.588 144.462 139.807 150.688 130.021C156.914 120.236 160.23 108.856 160.244 97.2283V95.6322C167.033 102.519 173.01 110.175 178.054 118.449C171.901 137.455 153.441 154.428 122.884 169.053ZM67.0792 115.161C73.1631 117.218 79.7546 117.161 85.8025 114.999L94.6117 111.845C98.1034 110.597 101.914 110.597 105.406 111.845L114.205 114.991C120.253 117.154 126.845 117.211 132.928 115.154L154.099 107.999C151.631 120.644 144.887 132.032 135.02 140.218C125.153 148.403 112.774 152.878 99.9987 152.878C87.2236 152.878 74.8449 148.403 64.9775 140.218C55.1101 132.032 48.3664 120.644 45.8985 107.999L67.0792 115.161ZM46.9192 88.926C63.1799 75.0245 82.0257 66.9333 100.011 66.9333C117.997 66.9333 136.853 75.0348 153.117 88.9311L131.778 82.7527C126.41 81.2029 120.712 81.2646 115.379 82.9303L104.789 86.2384C101.677 87.2115 98.3461 87.2115 95.2343 86.2384L84.6287 82.9406C79.2966 81.275 73.599 81.2133 68.2327 82.763L46.9192 88.926ZM99.9987 158.001C106.641 158.002 113.238 156.889 119.518 154.709C116.91 162.71 105.883 172.055 99.9987 176.312C94.109 172.057 83.0822 162.72 80.4767 154.709C86.7586 156.888 93.3556 158.001 99.9987 158.001ZM99.9987 5.14871C141.403 5.14871 180.384 60.7857 180.384 103.909C180.368 106.464 180.144 109.013 179.715 111.531C159.56 81.1386 128.835 61.7845 99.9987 61.7845C71.1623 61.7845 40.4298 81.1514 20.2749 111.552C19.8369 109.033 19.6157 106.48 19.6139 103.922C19.6139 60.7857 58.5942 5.14871 99.9987 5.14871ZM51.8112 161.029C59.2937 166.104 67.2409 170.446 75.5439 173.993C76.1723 174.247 76.875 174.239 77.4974 173.97C78.1198 173.701 78.6109 173.194 78.8626 172.56C79.1144 171.926 79.1062 171.218 78.8399 170.59C78.5736 169.962 78.0709 169.466 77.4425 169.212C76.9321 169.009 32.8302 150.783 21.9974 118.356C27.0286 110.12 32.985 102.496 39.7484 95.6373V97.2283C39.7623 108.857 43.079 120.238 49.3057 130.024C55.5325 139.81 64.4085 147.591 74.8829 152.446C75.5592 161.659 85.4631 171.277 92.3226 176.876H29.4643C28.4111 176.891 27.366 177.065 26.3637 177.391C33.6011 170.18 42.2753 164.602 51.8112 161.029ZM10.0392 271.927C6.86513 268.579 5.09677 264.123 5.10383 259.49V228.693C5.09264 213.418 9.91105 198.538 18.8586 186.216C18.7733 186.718 18.723 187.226 18.708 187.735V272.609C18.7106 274.192 19.0601 275.755 19.7316 277.186C20.403 278.617 21.3798 279.88 22.592 280.885C21.8203 281.517 21.1393 282.253 20.5683 283.074L10.0392 271.927ZM170.533 294.856H29.4643C27.9651 294.856 26.5274 294.256 25.4674 293.186C24.4073 292.117 23.8118 290.667 23.8118 289.154C23.8118 287.642 24.4073 286.192 25.4674 285.122C26.5274 284.053 27.9651 283.452 29.4643 283.452H170.533C172.032 283.452 173.47 284.053 174.53 285.122C175.59 286.192 176.186 287.642 176.186 289.154C176.186 290.667 175.59 292.117 174.53 293.186C173.47 294.256 172.032 294.856 170.533 294.856ZM194.896 259.49C194.904 264.123 193.134 268.58 189.958 271.927L179.429 283.066C178.857 282.246 178.177 281.51 177.405 280.878C178.617 279.872 179.594 278.608 180.265 277.178C180.937 275.747 181.286 274.184 181.289 272.601V262.046C181.289 261.364 181.021 260.709 180.542 260.226C180.063 259.743 179.414 259.472 178.738 259.472C178.061 259.472 177.412 259.743 176.933 260.226C176.455 260.709 176.186 261.364 176.186 262.046V272.601C176.184 274.113 175.587 275.562 174.528 276.631C173.468 277.7 172.032 278.301 170.533 278.303H29.4643C27.9655 278.302 26.5286 277.701 25.4689 276.632C24.4091 275.563 23.8132 274.113 23.8118 272.601V187.727C23.8132 186.215 24.4091 184.766 25.4689 183.697C26.5286 182.628 27.9655 182.026 29.4643 182.025H170.533C172.032 182.027 173.468 182.628 174.528 183.697C175.587 184.766 176.184 186.215 176.186 187.727V227.591C176.186 228.274 176.455 228.929 176.933 229.411C177.412 229.894 178.061 230.165 178.738 230.165C179.414 230.165 180.063 229.894 180.542 229.411C181.021 228.929 181.289 228.274 181.289 227.591V187.727C181.275 187.218 181.224 186.71 181.136 186.208C190.085 198.53 194.905 213.41 194.896 228.685V259.49Z" fill="#F5F5F5"/>
</svg>
