  <svg
    xmlns="http://www.w3.org/2000/svg"
    width={800}
    height={800}
    stroke="#000"
    viewBox="0 -7 64 64"
    
  >
    <title>{"Laptop"}</title>
    <g fill="none" fillRule="evenodd" stroke="#000" strokeWidth={2}>
      <path d="M57 28c0 1.1-.9 2-2 2H9c-1.1 0-2-.9-2-2V3c0-1.1.9-2 2-2h46c1.1 0 2 .9 2 2v25ZM58 32c0-1.1-.9-2-2-2H8c-1.1 0-2 .9-2 2L1 47c0 1.1.9 2 2 2h58c1.1 0 2-.9 2-2l-5-15ZM3 43.9h59" />
      <path d="M53.1 25c0 1.1-.9 2-2 2H13c-1.1 0-2-.9-2-2V7c0-1.1.9-2 2-2h38c1.1 0 2 .9 2 2l.1 18ZM23 40h18M18.2 40H21M13.1 40H16M8 40h3M10.2 36H13M15 36h3M20 36h3M25 36h3M30 36h3M35 36h3M40 36h3M46 36h3M51 36h3M48 33h3M43 33h3M38 33h3M33 33h3M28 33h3M23 33h3M18.1 33H21M13 33h3M43 40h2.8M48 40h2.9M53 40h3M27.5 10.2l-9.2 9.2M21.4 10.2l-5.7 4.6" />
    </g>
  </svg>